<svg width="24" height="24" viewBox="0 0 24 24" fill="none" xmlns="http://www.w3.org/2000/svg">
<path fill-rule="evenodd" clip-rule="evenodd" d="M14.897 2.84207C15.311 2.84207 15.647 3.17807 15.647 3.59207C15.647 4.00607 15.311 4.34207 14.897 4.34207H7.629C5.121 4.34207 3.5 6.06607 3.5 8.73607V16.8181C3.5 19.5231 5.082 21.2031 7.629 21.2031H16.233C18.741 21.2031 20.362 19.4821 20.362 16.8181V9.77907C20.362 9.36507 20.698 9.02907 21.112 9.02907C21.526 9.02907 21.862 9.36507 21.862 9.77907V16.8181C21.862 20.3381 19.6 22.7031 16.233 22.7031H7.629C4.262 22.7031 2 20.3381 2 16.8181V8.73607C2 5.21107 4.262 2.84207 7.629 2.84207H14.897ZM17.0124 9.67187C17.3404 9.92587 17.4004 10.3969 17.1464 10.7239L14.2164 14.5039C14.0944 14.6619 13.9144 14.7649 13.7164 14.7889C13.5164 14.8159 13.3184 14.7579 13.1604 14.6349L10.3424 12.4209L7.8114 15.7099C7.6634 15.9019 7.4414 16.0029 7.2164 16.0029C7.0564 16.0029 6.8954 15.9519 6.7594 15.8479C6.4314 15.5949 6.3694 15.1239 6.6224 14.7959L9.6154 10.9059C9.7374 10.7469 9.9184 10.6439 10.1164 10.6189C10.3184 10.5929 10.5164 10.6489 10.6734 10.7739L13.4934 12.9889L15.9604 9.80587C16.2144 9.47687 16.6844 9.41587 17.0124 9.67187ZM19.9674 1.99997C21.4414 1.99997 22.6394 3.19797 22.6394 4.67197C22.6394 6.14597 21.4414 7.34497 19.9674 7.34497C18.4944 7.34497 17.2954 6.14597 17.2954 4.67197C17.2954 3.19797 18.4944 1.99997 19.9674 1.99997ZM19.9674 3.49997C19.3214 3.49997 18.7954 4.02497 18.7954 4.67197C18.7954 5.31797 19.3214 5.84497 19.9674 5.84497C20.6134 5.84497 21.1394 5.31797 21.1394 4.67197C21.1394 4.02497 20.6134 3.49997 19.9674 3.49997Z" fill="#15BFFD"/>
</svg>
