<svg width="24" height="24" viewBox="0 0 24 24" fill="none" xmlns="http://www.w3.org/2000/svg">
<path fill-rule="evenodd" clip-rule="evenodd" d="M12 1.99997C17.514 1.99997 22 6.48597 22 12C22 17.514 17.514 22 12 22C6.486 22 2 17.514 2 12C2 6.48597 6.486 1.99997 12 1.99997ZM12 3.49997C7.313 3.49997 3.5 7.31297 3.5 12C3.5 16.687 7.313 20.5 12 20.5C16.687 20.5 20.5 16.687 20.5 12C20.5 7.31297 16.687 3.49997 12 3.49997ZM11.6612 7.09537C12.0762 7.09537 12.4112 7.43137 12.4112 7.84537V12.2674L15.8162 14.2974C16.1712 14.5104 16.2882 14.9704 16.0762 15.3264C15.9352 15.5614 15.6862 15.6924 15.4312 15.6924C15.3002 15.6924 15.1682 15.6584 15.0472 15.5874L11.2772 13.3384C11.0512 13.2024 10.9112 12.9574 10.9112 12.6934V7.84537C10.9112 7.43137 11.2472 7.09537 11.6612 7.09537Z" fill="#15BFFD"/>
</svg>
