<svg width="24" height="25" viewBox="0 0 24 25" fill="none" xmlns="http://www.w3.org/2000/svg">
<path d="M12 18.1832C11.8012 18.1805 11.6106 18.1036 11.4656 17.9677L3.96563 10.4741C3.84603 10.3285 3.78491 10.1437 3.79416 9.95557C3.80341 9.76745 3.88236 9.58948 4.01566 9.45629C4.14896 9.32311 4.32708 9.24422 4.51537 9.23498C4.70366 9.22574 4.88866 9.28681 5.03438 9.4063L12 16.3753L18.9656 9.4063C19.1113 9.28681 19.2963 9.22574 19.4846 9.23498C19.6729 9.24422 19.851 9.32311 19.9843 9.45629C20.1176 9.58948 20.1966 9.76745 20.2058 9.95557C20.2151 10.1437 20.154 10.3285 20.0344 10.4741L12.5344 17.9677C12.3894 18.1036 12.1988 18.1805 12 18.1832Z" fill="#AFB5C0"/>
</svg>
