<svg width="32" height="32" viewBox="0 0 32 32" fill="none" xmlns="http://www.w3.org/2000/svg">
<path d="M13.2843 25.6372C13.9508 25.4962 18.0124 25.4962 18.6789 25.6372C19.2488 25.7688 19.8649 26.0763 19.8649 26.7478C19.8318 27.387 19.4568 27.9537 18.9387 28.3136C18.2668 28.8373 17.4784 29.169 16.6541 29.2885C16.1983 29.3476 15.7504 29.3489 15.3104 29.2885C14.4848 29.169 13.6964 28.8373 13.0259 28.3122C12.5064 27.9537 12.1314 27.387 12.0983 26.7478C12.0983 26.0763 12.7144 25.7688 13.2843 25.6372ZM16.0603 2.66667C18.8339 2.66667 21.667 3.98269 23.35 6.16622C24.4419 7.57222 24.9428 8.97687 24.9428 11.1604V11.7284C24.9428 13.403 25.3854 14.39 26.3594 15.5275C27.0975 16.3654 27.3334 17.4411 27.3334 18.608C27.3334 19.7737 26.9504 20.8802 26.1831 21.7786C25.1787 22.8556 23.7621 23.5431 22.3163 23.6626C20.2213 23.8412 18.1249 23.9916 16.0007 23.9916C13.8751 23.9916 11.7801 23.9017 9.68502 23.6626C8.23796 23.5431 6.82138 22.8556 5.81824 21.7786C5.05098 20.8802 4.66669 19.7737 4.66669 18.608C4.66669 17.4411 4.90389 16.3654 5.64067 15.5275C6.64513 14.39 7.05858 13.403 7.05858 11.7284V11.1604C7.05858 8.91779 7.61779 7.45136 8.76935 6.01582C10.4814 3.92226 13.2258 2.66667 15.9411 2.66667H16.0603Z" fill="#373C70"/>
<circle cx="23.5" cy="6.5" r="3.5" fill="#FF3697"/>
</svg>
